<?xml version="1.0" encoding="utf-8"?>
<!-- Generator: Adobe Illustrator 28.1.0, SVG Export Plug-In . SVG Version: 6.00 Build 0)  -->
<svg version="1.1" xmlns="http://www.w3.org/2000/svg" xmlns:xlink="http://www.w3.org/1999/xlink" x="0px" y="0px"
	 viewBox="0 0 56.69 56.69" style="enable-background:new 0 0 56.69 56.69;" xml:space="preserve">
<style type="text/css">
	.st0{fill:#9F265B;}
	.st1{fill:none;}
	.st2{fill:#FFFFFF;}
</style>
<g id="Layer_1">
</g>
<g id="Layer_2">
	<circle class="st0" cx="28.35" cy="28.35" r="28.35"/>
</g>
<g id="Layer_3">
	<g>
		<rect x="14.55" y="8.65" class="st1" width="35.08" height="39.38"/>
		<path class="st2" d="M29.15,46H18.22V10.26c4.82-0.23,8.19-0.34,10.13-0.34c3.71,0,6.61,0.79,8.7,2.38
			c2.09,1.59,3.14,3.85,3.14,6.8c0,2.83-1.5,5.07-4.49,6.71c4.44,1.55,6.66,4.74,6.66,9.57c0,3.26-1.23,5.84-3.69,7.75
			C36.22,45.05,33.04,46,29.15,46z M24.56,15.34v8.57c0.98,0.07,2,0.1,3.08,0.1c4.13,0,6.2-1.55,6.2-4.66
			c0-2.75-1.88-4.13-5.64-4.13C27.21,15.22,26,15.26,24.56,15.34z M24.56,28.87v11.82c1.29,0.11,2.33,0.17,3.12,0.17
			c2.83,0,4.89-0.48,6.16-1.44c1.28-0.96,1.92-2.55,1.92-4.79c0-2.03-0.59-3.52-1.78-4.44c-1.19-0.93-3.26-1.39-6.23-1.39
			C27.14,28.79,26.08,28.82,24.56,28.87z"/>
	</g>
	<g>
	</g>
	<g>
	</g>
	<g>
	</g>
	<g>
	</g>
	<g>
	</g>
	<g>
	</g>
</g>
</svg>
